<?xml version="1.0" encoding="UTF-8" standalone="no"?>
<!-- Created with Inkscape (http://www.inkscape.org/) -->

<svg
   xmlns:dc="http://purl.org/dc/elements/1.1/"
   xmlns:cc="http://creativecommons.org/ns#"
   xmlns:rdf="http://www.w3.org/1999/02/22-rdf-syntax-ns#"
   xmlns:svg="http://www.w3.org/2000/svg"
   xmlns="http://www.w3.org/2000/svg"
   xmlns:sodipodi="http://sodipodi.sourceforge.net/DTD/sodipodi-0.dtd"
   xmlns:inkscape="http://www.inkscape.org/namespaces/inkscape"
   width="223mm"
   height="296.1937mm"
   viewBox="0 0 223 296.1937"
   version="1.1"
   id="svg8"
   inkscape:version="0.92.4 (5da689c313, 2019-01-14)"
   sodipodi:docname="kassi1.svg">
  <defs
     id="defs2" />
  <sodipodi:namedview
     id="base"
     pagecolor="#ffffff"
     bordercolor="#666666"
     borderopacity="1.0"
     inkscape:pageopacity="0.0"
     inkscape:pageshadow="2"
     inkscape:zoom="0.96"
     inkscape:cx="350.82369"
     inkscape:cy="967.2014"
     inkscape:document-units="mm"
     inkscape:current-layer="layer1"
     showgrid="false"
     inkscape:window-width="1920"
     inkscape:window-height="1001"
     inkscape:window-x="-9"
     inkscape:window-y="-9"
     inkscape:window-maximized="1" />
  <metadata
     id="metadata5">
    <rdf:RDF>
      <cc:Work
         rdf:about="">
        <dc:format>image/svg+xml</dc:format>
        <dc:type
           rdf:resource="http://purl.org/dc/dcmitype/StillImage" />
        <dc:title></dc:title>
      </cc:Work>
    </rdf:RDF>
  </metadata>
  <g
     inkscape:label="Layer 1"
     inkscape:groupmode="layer"
     id="layer1"
     transform="translate(-0.5,-0.5)">
    <path
       id="path2540"
       inkscape:label="part"
       style="fill:none;stroke:#000000;stroke-width:1"
       d="m 47,146.1 h 9.955 V 143 h 10.09 v 3.1 h 9.91 V 143 h 10.09 v 3.1 h 9.91 V 143 h 10.09 v 3.1 h 9.91 V 143 h 10.09 v 3.1 h 9.91 V 143 h 10.09 v 3.1 h 9.91 V 143 h 10.09 v 3.1 H 177"
       inkscape:connector-curvature="0" />
    <path
       id="path2542"
       inkscape:label="part"
       style="fill:none;stroke:#000000;stroke-width:1"
       d="m 110.45,158.045 v 14.91 h 3.1 v -14.91 h -3.1"
       inkscape:connector-curvature="0" />
    <path
       id="path2544"
       inkscape:label="part"
       style="fill:none;stroke:#000000;stroke-width:1"
       d="m 177,146.1 v 11.945 h -3.1 v 14.91 H 177 V 184.9"
       inkscape:connector-curvature="0" />
    <path
       id="path2546"
       inkscape:label="part"
       style="fill:none;stroke:#000000;stroke-width:1"
       d="m 177,184.9 h -9.955 v 3.1 h -10.09 v -3.1 h -9.91 v 3.1 h -10.09 v -3.1 h -9.91 v 3.1 h -10.09 v -3.1 h -9.91 v 3.1 h -10.09 v -3.1 h -9.91 v 3.1 h -10.09 v -3.1 h -9.91 v 3.1 h -10.09 v -3.1 H 47"
       inkscape:connector-curvature="0" />
    <path
       id="path2548"
       inkscape:label="part"
       style="fill:none;stroke:#000000;stroke-width:1"
       d="m 47,184.9 v -11.945 h 3.1 v -14.91 H 47 V 146.1"
       inkscape:connector-curvature="0" />
    <path
       id="path2550"
       inkscape:label="part"
       style="fill:none;stroke:#000000;stroke-width:1"
       d="M 4.0999999,50.1 H 15.955 V 47 h 15.09 v 3.1 H 42.9"
       inkscape:connector-curvature="0" />
    <path
       id="path2552"
       inkscape:label="part"
       style="fill:none;stroke:#000000;stroke-width:1"
       d="m 42.9,50.1 v 7.410556 H 46 V 68.156111 H 42.9 V 78.621667 H 46 V 89.267222 H 42.9 V 99.732778 H 46 v 10.645552 h -3.1 v 10.46556 H 46 v 10.64555 H 42.9 V 138.9"
       inkscape:connector-curvature="0" />
    <path
       id="path2554"
       inkscape:label="part"
       style="fill:none;stroke:#000000;stroke-width:1"
       d="M 42.9,138.9 H 31.045 v 3.1 h -15.09 v -3.1 H 4.0999999"
       inkscape:connector-curvature="0" />
    <path
       id="path2556"
       inkscape:label="part"
       style="fill:none;stroke:#000000;stroke-width:1"
       d="m 4.0999999,138.9 v -7.41056 H 1 V 120.84389 H 4.0999999 V 110.37833 H 1 V 99.732778 H 4.0999999 V 89.267222 H 1 V 78.621667 H 4.0999999 V 68.156111 H 1 V 57.510556 H 4.0999999 V 50.1"
       inkscape:connector-curvature="0" />
    <path
       id="path2564"
       style="fill:none;stroke:#000000;stroke-width:1"
       d="m 3.7034212,290.99643 v -7.41056 0 -10.64555 l 21.7852878,-1.51073 c 0,0 -14.956895,-2.1098 -21.7852878,-8.95483 v 0 -10.64555 0 -10.46556 L 19.6172,239.25168 3.7034212,230.7181 v 0 -10.46556 0 -10.64555 0 -7.41056 m 38.7999998,88.8 h -11.855 v 3.1 h -15.09 v -3.1 H 3.7034212 m 38.7999998,-88.8 v 7.41056 0 10.64555 l -18.952327,3.14208 18.952327,7.32348 v 0 10.64555 0 l -0.301711,13.48266 -13.832128,0.1553 c 7.748636,5.10807 14.133839,7.47315 14.133839,7.47315 v 0 10.46556 0 10.64555 0 7.41056 m -38.7999998,-88.8 H 15.558421 v -3.1 h 15.09 v 3.1 h 11.855"
       inkscape:connector-curvature="0"
       sodipodi:nodetypes="cccccccccccccccccccccccccccccccccccccccccccccccc" />
    <path
       id="path2566"
       inkscape:label="part"
       style="fill:none;stroke:#000000;stroke-width:1"
       d="m 47,47 h 10.045 v 3.1 h 9.91 V 47 h 10.09 v 3.1 h 9.91 V 47 h 10.09 v 3.1 h 9.91 V 47 h 10.09 v 3.1 h 9.91 V 47 h 10.09 v 3.1 h 9.91 V 47 h 10.09 v 3.1 h 9.91 V 47 H 177"
       inkscape:connector-curvature="0" />
    <path
       id="path2568"
       inkscape:label="part"
       style="fill:none;stroke:#000000;stroke-width:1"
       d="m 177,47 v 10.600556 h -3.1 v 10.465555 h 3.1 v 10.645556 h -3.1 v 10.465555 h 3.1 v 10.645556 h -3.1 v 10.465552 h 3.1 v 10.64556 h -3.1 v 10.46555 H 177 V 142"
       inkscape:connector-curvature="0" />
    <path
       id="path2570"
       inkscape:label="part"
       style="fill:none;stroke:#000000;stroke-width:1"
       d="m 177,142 h -10.045 v -3.1 h -9.91 v 3.1 h -10.09 v -3.1 h -9.91 v 3.1 h -10.09 v -3.1 h -9.91 v 3.1 h -10.09 v -3.1 h -9.91 v 3.1 h -10.09 v -3.1 h -9.91 v 3.1 h -10.09 v -3.1 h -9.91 V 142 H 47"
       inkscape:connector-curvature="0" />
    <path
       id="path2572"
       inkscape:label="part"
       style="fill:none;stroke:#000000;stroke-width:1"
       d="m 47,142 v -10.60056 h 3.1 V 120.93389 H 47 v -10.64556 h 3.1 V 99.822778 H 47 V 89.177222 h 3.1 V 78.711667 H 47 V 68.066111 h 3.1 V 57.600556 H 47 V 47"
       inkscape:connector-curvature="0" />
    <path
       id="path2574"
       inkscape:label="part"
       style="fill:none;stroke:#000000;stroke-width:1"
       d="m 181.1,50.1 h 11.855 V 47 h 15.09 v 3.1 H 219.9"
       inkscape:connector-curvature="0" />
    <path
       id="path2576"
       inkscape:label="part"
       style="fill:none;stroke:#000000;stroke-width:1"
       d="m 219.9,50.1 v 7.410556 h 3.1 v 10.645555 h -3.1 v 10.465556 h 3.1 v 10.645555 h -3.1 v 10.465556 h 3.1 v 10.645552 h -3.1 v 10.46556 h 3.1 v 10.64555 h -3.1 V 138.9"
       inkscape:connector-curvature="0" />
    <path
       id="path2578"
       inkscape:label="part"
       style="fill:none;stroke:#000000;stroke-width:1"
       d="m 219.9,138.9 h -11.855 v 3.1 h -15.09 v -3.1 H 181.1"
       inkscape:connector-curvature="0" />
    <path
       id="path2580"
       inkscape:label="part"
       style="fill:none;stroke:#000000;stroke-width:1"
       d="m 181.1,138.9 v -7.41056 H 178 v -10.64555 h 3.1 V 110.37833 H 178 V 99.732778 h 3.1 V 89.267222 H 178 V 78.621667 h 3.1 V 68.156111 H 178 V 57.510556 h 3.1 V 50.1"
       inkscape:connector-curvature="0" />
    <path
       id="path2582"
       inkscape:label="part"
       style="fill:none;stroke:#000000;stroke-width:1"
       d="m 56.146633,196.96035 h 10.045 v 3.1 h 9.91 v -3.1 h 10.09 v 3.1 h 9.91 v -3.1 h 10.089997 v 3.1 h 9.91 v -3.1 h 10.09 v 3.1 h 9.91 v -3.1 h 10.09 v 3.1 h 9.91 v -3.1 h 10.09 v 3.1 h 9.91 v -3.1 h 10.045"
       inkscape:connector-curvature="0" />
    <path
       id="path2584"
       inkscape:label="part"
       style="fill:none;stroke:#000000;stroke-width:1"
       d="m 186.14663,196.96035 v 10.60056 h -3.1 v 10.46555 h 3.1 v 10.64556 h -3.1 v 10.46555 h 3.1 v 10.64556 h -3.1 v 10.46555 h 3.1 v 10.64556 h -3.1 v 10.46555 h 3.1 v 10.60056"
       inkscape:connector-curvature="0"
       sodipodi:nodetypes="cccccccccccccccccc" />
    <path
       id="path2586"
       inkscape:label="part"
       style="fill:none;stroke:#000000;stroke-width:1"
       d="m 186.14663,291.96035 h -10.045 v -3.1 h -9.91 v 6.80417 h -10.09 v -6.80417 h -9.91 v 7.33333 h -10.09 v -7.33333 h -9.91 v 7.33333 h -10.09 v -7.33333 h -9.91 v 7.33333 H 96.101633 v -7.33333 h -9.91 v 6.80417 h -10.09 v -6.80417 h -9.91 v 3.1 h -10.045"
       inkscape:connector-curvature="0"
       sodipodi:nodetypes="cccccccccccccccccccccccccc" />
    <path
       id="path2588"
       inkscape:label="part"
       style="fill:none;stroke:#000000;stroke-width:1"
       d="m 56.146633,291.96035 v -10.60056 h 3.1 v -10.46555 h -3.1 v -10.64556 h 3.1 v -10.46555 h -3.1 v -10.64556 h 3.1 v -10.46555 h -3.1 v -10.64556 h 3.1 v -10.46555 h -3.1 v -10.60056"
       inkscape:connector-curvature="0" />
    <path
       id="path2590"
       inkscape:label="part"
       style="fill:none;stroke:#000000;stroke-width:1"
       d="m 47,4.0999999 h 9.955 V 1 h 10.09 v 3.0999999 h 9.91 V 1 h 10.09 v 3.0999999 h 9.91 V 1 h 10.09 v 3.0999999 h 9.91 V 1 h 10.09 v 3.0999999 h 9.91 V 1 h 10.09 v 3.0999999 h 9.91 V 1 h 10.09 V 4.0999999 H 177"
       inkscape:connector-curvature="0" />
    <path
       id="path2592"
       inkscape:label="part"
       style="fill:none;stroke:#000000;stroke-width:1"
       d="m 110.45,16.045 v 14.91 h 3.1 v -14.91 h -3.1"
       inkscape:connector-curvature="0" />
    <path
       id="path2594"
       inkscape:label="part"
       style="fill:none;stroke:#000000;stroke-width:1"
       d="M 177,4.0999999 V 16.045 h -3.1 v 14.91 H 177 V 42.9"
       inkscape:connector-curvature="0" />
    <path
       id="path2596"
       inkscape:label="part"
       style="fill:none;stroke:#000000;stroke-width:1"
       d="m 177,42.9 h -9.955 V 46 h -10.09 v -3.1 h -9.91 V 46 h -10.09 v -3.1 h -9.91 V 46 h -10.09 v -3.1 h -9.91 V 46 h -10.09 v -3.1 h -9.91 V 46 h -10.09 v -3.1 h -9.91 V 46 H 56.955 V 42.9 H 47"
       inkscape:connector-curvature="0" />
    <path
       id="path2598"
       inkscape:label="part"
       style="fill:none;stroke:#000000;stroke-width:1"
       d="M 47,42.9 V 30.955 h 3.1 V 16.045 H 47 V 4.0999999"
       inkscape:connector-curvature="0" />
    <flowRoot
       xml:space="preserve"
       id="flowRoot2661"
       style="font-style:normal;font-weight:normal;font-size:40px;line-height:1.25;font-family:sans-serif;letter-spacing:0px;word-spacing:0px;fill:#000000;fill-opacity:1;stroke:none"
       transform="scale(0.26458333)"><flowRegion
         id="flowRegion2663"><rect
           id="rect2665"
           width="281.13824"
           height="70.494545"
           x="271.39703"
           y="1044.9777" /></flowRegion><flowPara
         id="flowPara2667" /></flowRoot>    <text
       xml:space="preserve"
       style="font-style:normal;font-weight:normal;font-size:10.58333302px;line-height:1.25;font-family:sans-serif;letter-spacing:0px;word-spacing:0px;fill:#000000;fill-opacity:1;stroke:none;stroke-width:0.26458332"
       x="68.186607"
       y="278.59564"
       id="text2671"><tspan
         sodipodi:role="line"
         id="tspan2669"
         x="68.186607"
         y="287.95941"
         style="stroke-width:0.26458332"></tspan></text>
    <flowRoot
       xml:space="preserve"
       id="flowRoot2677"
       style="font-style:normal;font-weight:normal;font-size:40px;line-height:1.25;font-family:sans-serif;letter-spacing:0px;word-spacing:0px;fill:#000000;fill-opacity:1;stroke:none"
       transform="scale(0.26458333)"><flowRegion
         id="flowRegion2679"><rect
           id="rect2681"
           width="128.85658"
           height="45.612949"
           x="280.51962"
           y="1014.1889" /></flowRegion><flowPara
         id="flowPara2683">Jónssssssssssss</flowPara></flowRoot>    <text
       xml:space="preserve"
       style="font-style:normal;font-weight:normal;font-size:10.58333302px;line-height:1.25;font-family:sans-serif;letter-spacing:0px;word-spacing:0px;fill:#000000;fill-opacity:1;stroke:none;stroke-width:0.26458332"
       x="80.55674"
       y="277.0871"
       id="text2687"><tspan
         sodipodi:role="line"
         id="tspan2685"
         x="80.55674"
         y="286.45087"
         style="stroke-width:0.26458332" /></text>
    <flowRoot
       xml:space="preserve"
       id="flowRoot2689"
       style="font-style:normal;font-weight:normal;font-size:40px;line-height:1.25;font-family:sans-serif;letter-spacing:0px;word-spacing:0px;fill:#000000;fill-opacity:1;stroke:none"><flowRegion
         id="flowRegion2691"><rect
           id="rect2693"
           width="425.34076"
           height="129.9969"
           x="701.29907"
           y="310.60916" /></flowRegion><flowPara
         id="flowPara2695"></flowPara></flowRoot>    <flowRoot
       xml:space="preserve"
       id="flowRoot2697"
       style="font-style:normal;font-weight:normal;font-size:40px;line-height:1.25;font-family:sans-serif;letter-spacing:0px;word-spacing:0px;fill:#000000;fill-opacity:1;stroke:none"
       transform="matrix(0,-0.46090976,0.65376668,0,-208.01849,688.50282)"><flowRegion
         id="flowRegion2699"><rect
           id="rect2701"
           width="547.35541"
           height="375.1665"
           x="1206.4625"
           y="600.2514" /></flowRegion><flowPara
         id="flowPara2703">Jón Logi</flowPara></flowRoot>    <path
       style="fill:none;stroke:#000000;stroke-width:0.59755063px;stroke-linecap:butt;stroke-linejoin:miter;stroke-opacity:1"
       d="m 80.759817,168.89296 c 0.105202,-0.3523 0.323163,-0.51481 0.572807,-0.74803 0.03793,-0.0354 0.08373,-0.0643 0.113733,-0.10621 0.04742,-0.0663 0.05587,-0.15871 0.115792,-0.21454 0.05998,-0.0561 0.1579,-0.0569 0.225408,-0.10408 0.139502,-0.0975 0.311025,-0.33575 0.454942,-0.42504 0.07012,-0.0434 0.157901,-0.0569 0.225409,-0.10408 0.491945,-0.45958 -0.02926,-0.0184 0.452887,-0.31664 0.04432,-0.0275 0.06623,-0.0844 0.113733,-0.1062 0.03358,-0.015 0.07615,0.0126 0.111675,0.002 0.07945,-0.0241 0.145958,-0.08 0.225409,-0.10409 0.03552,-0.0104 0.07615,0.0126 0.111675,0.002 0.224585,-0.068 0.226234,-0.14033 0.45083,-0.20839 0.03551,-0.0104 0.07445,0.001 0.111674,0.002 0.111675,0.002 0.225106,0.0265 0.335035,0.006 0.08192,-0.014 0.145957,-0.08 0.225408,-0.10409 0.06507,-0.0188 0.349926,0.007 0.446702,0.008 0.07445,0.001 0.148901,0.003 0.22335,0.004 0.03725,7e-4 0.07866,-0.0141 0.111675,0.002 0.04663,0.0238 0.06635,0.0814 0.109616,0.11045 0.17014,0.11471 0.27246,0.11043 0.442589,0.22537 0.04324,0.0291 0.06297,0.0866 0.109616,0.11045 0.03301,0.0162 0.08109,-0.0185 0.111675,0.002 0.404148,0.27251 0.05929,0.25953 0.326794,0.43987 0.88243,0.59499 -0.401933,-0.40516 0.328851,0.33149 0.02583,0.0261 0.09565,-0.0305 0.111675,0.002 0.03205,0.0653 -0.02635,0.1477 -0.0041,0.21688 0.02384,0.0739 0.28777,0.24788 0.32885,0.33149 0.04305,0.0876 -0.04923,0.23759 -0.0062,0.32512 0.02267,0.0462 0.08694,0.0644 0.109616,0.11045 0.03208,0.0651 -0.0558,0.16472 -0.0041,0.21666 0.02583,0.0261 0.08585,-0.024 0.111675,0.002 0.02583,0.0261 -0.0014,0.0723 -0.0021,0.10833 -6.84e-4,0.036 -0.0014,0.0723 -0.0021,0.10833 -0.0076,0.39737 -0.0151,0.79474 -0.02265,1.19214"
       id="path2727"
       inkscape:connector-curvature="0" />
    <path
       style="fill:none;stroke:#000000;stroke-width:0.59755063px;stroke-linecap:butt;stroke-linejoin:miter;stroke-opacity:1"
       d="m 87.437727,170.21256 c 0.0345,0.14507 0.06405,0.29152 0.103509,0.43549 0.0303,0.11049 0.08454,0.21478 0.105496,0.32726 0.02653,0.14225 -0.0055,0.289 -0.0082,0.4335 -0.0055,0.289 -0.01098,0.57802 -0.01647,0.86702 -5e-4,0.0263 -0.0098,0.32156 -0.0062,0.32512 0.0043,0.004 0.4057,0.008 0.446709,0.008 0.03722,7e-4 0.08488,0.0272 0.111675,0.002 0.0268,-0.0251 -0.02474,-0.0833 0.0021,-0.10833 0.05362,-0.0502 0.169749,0.0544 0.22335,0.004 0.0268,-0.0251 -0.02474,-0.0833 0.0021,-0.10833 0.0268,-0.0251 0.07807,0.0171 0.111674,0.002 0.0475,-0.022 0.06623,-0.0844 0.113735,-0.10621 0.0672,-0.031 0.156148,0.0353 0.22335,0.004 0.0475,-0.022 0.06622,-0.0844 0.113733,-0.1062 0.0336,-0.015 0.08488,0.0272 0.111675,0.002 0.0268,-0.0251 -0.02474,-0.0833 0.0021,-0.10833 0.05362,-0.0502 0.169725,0.0544 0.22335,0.004 0.0268,-0.0251 -0.02474,-0.0833 0.0021,-0.10833 0.0268,-0.0251 0.08488,0.0272 0.111675,0.002 0.0268,-0.0251 -0.02474,-0.0833 0.0021,-0.10833 0.0268,-0.0251 0.07807,0.0171 0.111674,0.002 0.469062,-0.21669 -0.119509,0.005 0.115793,-0.21454 0.0268,-0.0251 0.08485,0.0272 0.111675,0.002 0.0268,-0.0251 -0.02474,-0.0833 0.0021,-0.10833 0.0268,-0.0251 0.08488,0.0272 0.111674,0.002 0.0536,-0.0502 -0.0495,-0.16672 0.0041,-0.21666 0.0268,-0.0251 0.08488,0.0272 0.111675,0.002 0.0268,-0.0251 -0.02474,-0.0833 0.0021,-0.10833 0.0268,-0.0251 0.08488,0.0272 0.111675,0.002 0.05362,-0.0502 -0.04948,-0.16672 0.0041,-0.21666 0.0268,-0.0251 0.08488,0.0272 0.111674,0.002 0.0268,-0.0251 0.0014,-0.0723 0.0021,-0.10833 0.0048,-0.2529 0.0096,-0.50577 0.01442,-0.75865 0.0048,-0.25289 0.0096,-0.50576 0.01441,-0.75864 6.84e-4,-0.036 0.02789,-0.0823 0.0021,-0.10833 -0.02583,-0.0261 -0.08585,0.024 -0.111675,-0.002 -0.02999,-0.0302 0.03744,-0.37413 0.0082,-0.43349 -0.02265,-0.046 -0.08694,-0.0644 -0.109616,-0.11045 -0.03207,-0.0653 0.0362,-0.15152 0.0041,-0.21689 -0.02267,-0.046 -0.08694,-0.0644 -0.109616,-0.11045 -0.01612,-0.0326 0.02789,-0.0823 0.0021,-0.10833 -0.02583,-0.0261 -0.08585,0.024 -0.111675,-0.002 -0.02227,-0.0227 0.0276,-0.28175 0.0062,-0.32512 -0.02267,-0.046 -0.08694,-0.0644 -0.109616,-0.11045 -0.01612,-0.0326 0.02789,-0.0823 0.0021,-0.10834 -0.02583,-0.0261 -0.08585,0.024 -0.111676,-0.002 -0.02583,-0.0261 0.02789,-0.0823 0.0021,-0.10833 -0.02583,-0.0261 -0.08585,0.024 -0.111675,-0.002 -0.05166,-0.0522 0.0558,-0.16472 0.0041,-0.21666 -0.02583,-0.0261 -0.08585,0.024 -0.111674,-0.002 -0.02583,-0.0261 0.01818,-0.0758 0.0021,-0.10833 -0.114576,-0.23316 -0.10464,0.0114 -0.219233,-0.22091 -0.01589,-0.0326 0.02789,-0.0823 0.0021,-0.10833 -0.02583,-0.0261 -0.08585,0.024 -0.111675,-0.002 -0.02583,-0.0261 0.02789,-0.0823 0.0021,-0.10833 -0.02583,-0.0261 -0.08585,0.024 -0.111675,-0.002 -0.05168,-0.0522 0.0558,-0.16472 0.0041,-0.21666 -0.02583,-0.0261 -0.08585,0.024 -0.111675,-0.002 -0.02583,-0.0261 0.01795,-0.0758 0.0021,-0.10833 -0.02267,-0.046 -0.08694,-0.0644 -0.109616,-0.11045 -0.01589,-0.0326 0.02789,-0.0823 0.0021,-0.10833 -0.02583,-0.0261 -0.08585,0.024 -0.111676,-0.002 -0.02583,-0.0261 0.02789,-0.0823 0.0021,-0.10832 -0.05168,-0.0522 -0.171671,0.048 -0.22335,-0.004 -0.02583,-0.0261 0.02789,-0.0823 0.0021,-0.10833 -0.226804,-0.22864 0.0024,0.34284 -0.221291,-0.11257 -0.01612,-0.0326 0.02789,-0.0823 0.0021,-0.10833 -0.02583,-0.0261 -0.07866,0.0141 -0.111675,-0.002 -0.04663,-0.0238 -0.07307,-0.0737 -0.109616,-0.11046 -0.03653,-0.037 -0.08694,-0.0644 -0.109616,-0.11045 -0.01589,-0.0326 0.02789,-0.0823 0.0021,-0.10833 -0.02583,-0.0261 -0.08585,0.024 -0.111675,-0.002 -0.02583,-0.0261 0.01795,-0.0758 0.0021,-0.10833 -0.02267,-0.046 -0.08694,-0.0644 -0.109618,-0.11045 -0.01612,-0.0326 0.01818,-0.0758 0.0021,-0.10833 -0.22382,-0.45545 0.0056,0.11603 -0.221291,-0.11258 -0.02583,-0.0261 0.01818,-0.0758 0.0021,-0.10833 -0.02267,-0.046 -0.08694,-0.0644 -0.109616,-0.11045 -0.01612,-0.0326 0.02789,-0.0823 0.0021,-0.10833 -0.02583,-0.0261 -0.07866,0.0141 -0.111674,-0.002 -0.460491,-0.23435 0.119243,0.009 -0.107558,-0.21879 -0.02583,-0.0261 -0.07869,0.0141 -0.111675,-0.002 -0.132789,-0.0675 -0.196082,-0.26392 -0.328856,-0.33151 -0.03301,-0.0162 -0.07866,0.0141 -0.111675,-0.002 -0.04669,-0.0238 -0.06298,-0.0866 -0.109616,-0.11045 -0.03301,-0.0162 -0.08585,0.024 -0.111675,-0.002 -0.02583,-0.0261 0.02789,-0.0823 0.0021,-0.10833 -0.05168,-0.0522 -0.157375,0.0293 -0.22335,-0.004 -0.0467,-0.0238 -0.06297,-0.0868 -0.109616,-0.11045 -0.03301,-0.0162 -0.07866,0.0141 -0.111675,-0.002 -0.04663,-0.0238 -0.06297,-0.0868 -0.109617,-0.11046 -0.02911,-0.0139 -0.388313,-0.007 -0.44671,-0.008 -0.297808,-0.006 -0.59561,-0.0113 -0.893419,-0.017 -0.186125,-0.004 -0.372259,-0.007 -0.558383,-0.0106 -0.03725,-7.1e-4 -0.08488,-0.0272 -0.111675,-0.002 -0.0268,0.0251 0.02474,0.0833 -0.0021,0.10833 -0.05362,0.0502 -0.156149,-0.0353 -0.22335,-0.004 -0.0475,0.022 -0.06622,0.0842 -0.113734,0.10621 -0.0672,0.031 -0.169725,-0.0544 -0.223349,-0.004 -0.0268,0.0251 0.02474,0.0833 -0.0021,0.10833 -0.05362,0.0502 -0.156148,-0.0353 -0.22335,-0.004 -0.0475,0.022 -0.06622,0.0842 -0.113733,0.10621 -0.0336,0.015 -0.08488,-0.0272 -0.111675,-0.002 -0.0268,0.0251 0.02474,0.0833 -0.0021,0.10833 -0.44388,0.41469 -0.05951,-0.0262 -0.337086,0.10197 -0.135236,0.0624 -0.205966,0.25628 -0.341212,0.31875 -0.0336,0.015 -0.07807,-0.0171 -0.111676,-0.002 -0.0475,0.022 -0.06939,0.0788 -0.113733,0.10621 -0.0701,0.0434 -0.165459,0.0481 -0.225408,0.10408 -0.0268,0.0251 0.01529,0.0764 -0.0021,0.10833 -0.08868,0.16432 -0.200618,0.081 -0.33915,0.2103 -0.0268,0.0251 0.03155,0.0929 -0.0021,0.10833 -0.0672,0.031 -0.152293,-0.0258 -0.22335,-0.004 -0.350723,0.10616 0.03587,0.073 -0.115792,0.21454 -0.05998,0.0561 -0.155312,0.0607 -0.225408,0.10409 -0.04432,0.0274 -0.07582,0.0709 -0.113733,0.1062 -0.03791,0.0353 -0.08933,0.061 -0.113734,0.10621 -0.01712,0.032 0.02474,0.0833 -0.0021,0.10833 -0.0268,0.0251 -0.07445,-0.001 -0.111675,-0.002 -0.03794,0.0356 -0.08373,0.0643 -0.113733,0.10621 -0.04742,0.0663 -0.05585,0.15872 -0.115792,0.21454 -0.05362,0.0502 -0.16975,-0.0544 -0.223351,-0.004 -0.0268,0.0251 0.01529,0.0764 -0.0021,0.10833 -0.06947,0.12885 -0.271731,0.18999 -0.341206,0.31878 -0.01712,0.032 0.02474,0.0833 -0.0021,0.10832 -0.0268,0.0251 -0.07807,-0.0171 -0.111675,-0.002 -0.469061,0.21669 0.11951,-0.005 -0.115792,0.21454 -0.23532,0.21986 0.01541,-0.34248 -0.225409,0.10409 -0.03453,0.0641 0.03041,0.15278 -0.0041,0.21666 -0.0244,0.0451 -0.08933,0.061 -0.113733,0.10621 -0.01735,0.032 0.02474,0.0833 -0.0021,0.10833 -0.0268,0.0251 -0.08488,-0.0272 -0.111674,-0.002 -0.0268,0.0251 0.01506,0.0764 -0.0021,0.10834 -0.0244,0.0451 -0.08932,0.061 -0.113733,0.1062 -0.01712,0.032 -0.0014,0.0723 -0.0021,0.10833 -0.0027,0.14459 -0.0055,0.289 -0.0082,0.4335 -6.84e-4,0.036 -0.0014,0.0723 -0.0021,0.10833 -6.84e-4,0.036 0.03516,0.10903 -0.0021,0.10833 -0.03725,-7.1e-4 0.0027,-0.14459 0.0021,-0.10833 -0.0021,0.10833 -0.0041,0.21666 -0.0062,0.32513 -6.84e-4,0.036 -0.0014,0.0723 -0.0021,0.10833 -6.84e-4,0.036 0.03516,0.10904 -0.0021,0.10833 -0.03725,-7.1e-4 0.0027,-0.1446 0.0021,-0.10833 -0.0014,0.0723 -0.0027,0.14458 -0.0041,0.21665 -6.9e-4,0.0363 0.03517,0.10904 -0.0021,0.10833 -0.03725,-7.1e-4 0.0027,-0.14458 0.0021,-0.10833 -0.0021,0.10833 -0.0041,0.21666 -0.0062,0.32513 -6.84e-4,0.036 0.03516,0.10904 -0.0021,0.10833 -0.03725,-7.1e-4 0.0027,-0.14459 0.0021,-0.10833 -0.0014,0.0723 -0.07623,0.23473 -0.0041,0.21666 0.696263,-0.17347 1.34973,-0.48028 2.024603,-0.72042"
       id="path2733"
       inkscape:connector-curvature="0" />
    <path
       style="fill:none;stroke:#000000;stroke-width:0.59755063px;stroke-linecap:butt;stroke-linejoin:miter;stroke-opacity:1"
       d="m 87.165022,172.80921 c -0.380279,-0.12049 -0.351459,0.3235 -0.566624,0.42291 -0.0672,0.031 -0.16975,-0.0544 -0.223351,-0.004 -0.0268,0.0251 0.02474,0.0833 -0.0021,0.10833 -0.0536,0.0502 -0.169726,-0.0544 -0.22335,-0.004 -0.0268,0.0251 0.02474,0.0833 -0.0021,0.10833 -0.05362,0.0502 -0.169748,-0.0544 -0.223349,-0.004 -0.0268,0.0251 0.02474,0.0833 -0.0021,0.10833 -0.05689,0.0532 -0.278163,-0.0596 -0.335031,-0.006 -0.0268,0.0251 0.02474,0.0833 -0.0021,0.10833 -0.0268,0.0251 -0.07807,-0.0171 -0.111675,-0.002 -0.0475,0.022 -0.06623,0.0845 -0.113733,0.10621 -0.0672,0.031 -0.169726,-0.0544 -0.223351,-0.004 -0.0268,0.0251 0.02474,0.0833 -0.0021,0.10833 -0.05689,0.0532 -0.278162,-0.0596 -0.335032,-0.006 -0.0268,0.0251 0.02474,0.0833 -0.0021,0.10832 -0.0268,0.0251 -0.07807,-0.0171 -0.111675,-0.002 -0.0475,0.022 -0.06622,0.0842 -0.113733,0.10621 -0.02962,0.0128 -0.388313,-0.007 -0.44671,-0.008 -0.335033,-0.006 -0.670068,-0.0127 -1.005094,-0.0191 -0.297809,-0.006 -0.595616,-0.0113 -0.893418,-0.017 -0.05027,-9.5e-4 -0.301345,0.01 -0.335034,-0.006 -0.04663,-0.0238 -0.06297,-0.0868 -0.109617,-0.11045 -0.03301,-0.0162 -0.07866,0.0141 -0.111675,-0.002 -0.04663,-0.0238 -0.06297,-0.0868 -0.109616,-0.11044 -0.06954,-0.0353 -0.377162,0.0268 -0.446709,-0.008 -0.04663,-0.0238 -0.06298,-0.0866 -0.109617,-0.11045 -0.03301,-0.0162 -0.07866,0.0141 -0.111675,-0.002 -0.04663,-0.0238 -0.06297,-0.0866 -0.109616,-0.11045 -0.03301,-0.0162 -0.07869,0.0141 -0.111675,-0.002 -0.04663,-0.0238 -0.06298,-0.0866 -0.109616,-0.11045 -0.06597,-0.0336 -0.171672,0.0479 -0.223351,-0.004 -0.02583,-0.0261 0.02789,-0.0823 0.0021,-0.10833 -0.02583,-0.0261 -0.07869,0.0141 -0.111675,-0.002 -0.04663,-0.0238 -0.06297,-0.0869 -0.109617,-0.11045 -0.03299,-0.0162 -0.07866,0.0141 -0.111674,-0.002 -0.04663,-0.0238 -0.06297,-0.0869 -0.109617,-0.11045 -0.03301,-0.0162 -0.08585,0.024 -0.111675,-0.002 -0.2268,-0.22864 0.352928,0.0157 -0.107553,-0.219 -0.06597,-0.0336 -0.171672,0.048 -0.22335,-0.004 -0.226807,-0.22862 0.352922,0.0157 -0.107558,-0.21879 -0.03301,-0.0162 -0.07869,0.0141 -0.111676,-0.002 -0.108871,-0.0555 -0.32959,-0.38658 -0.43847,-0.44199 -0.03301,-0.0162 -0.08585,0.024 -0.111675,-0.002 -0.02583,-0.0261 0.02789,-0.0823 0.0021,-0.10833 -0.226807,-0.22863 0.0024,0.34283 -0.221291,-0.11257 -0.01589,-0.0326 0.02789,-0.0823 0.0021,-0.10833 -0.02583,-0.0261 -0.08585,0.024 -0.111675,-0.002 -0.02583,-0.0261 0.01795,-0.0758 0.0021,-0.10832 -0.02267,-0.046 -0.08694,-0.0645 -0.109616,-0.11045 -0.01589,-0.0326 0.02789,-0.0823 0.0021,-0.10833 -0.02583,-0.0261 -0.08585,0.024 -0.111675,-0.002 -0.02583,-0.0261 0.02789,-0.0823 0.0021,-0.10833 -0.02583,-0.0261 -0.08585,0.024 -0.111675,-0.002 -0.02583,-0.0261 0.02789,-0.0823 0.0021,-0.10834 -0.02583,-0.0261 -0.08585,0.024 -0.111674,-0.002 -0.02227,-0.0227 0.0276,-0.28174 0.0062,-0.32512 -0.02268,-0.046 -0.08694,-0.0644 -0.109617,-0.11045 -0.01589,-0.0326 0.02789,-0.0823 0.0021,-0.10833 -0.02583,-0.0261 -0.08585,0.024 -0.111675,-0.002 -0.05483,-0.0554 0.06101,-0.2699 0.0062,-0.32515 -0.02583,-0.0261 -0.07866,0.0141 -0.111674,-0.002 -0.04663,-0.0238 -0.06297,-0.0868 -0.109617,-0.11045 -0.03301,-0.0162 -0.08585,0.024 -0.111676,-0.002 -0.02583,-0.0261 0.01795,-0.0758 0.0021,-0.10833 -0.04533,-0.0923 -0.173884,-0.12881 -0.219233,-0.2209 -0.03205,-0.0654 0.0558,-0.16472 0.0041,-0.21666 -0.02583,-0.0261 -0.08585,0.024 -0.111675,-0.002 -0.02583,-0.0261 0.0014,-0.0723 0.0021,-0.10833 -0.03722,-7.1e-4 -0.07866,0.0141 -0.111675,-0.002 -0.223787,-0.11396 -0.03108,-0.25218 -0.105497,-0.32725 -0.02583,-0.0261 -0.07866,0.0141 -0.111675,-0.002 -0.460491,-0.23435 0.119244,0.009 -0.107558,-0.21878 -0.02583,-0.0261 -0.08585,0.024 -0.111675,-0.002 -0.2268,-0.22862 0.35293,0.0157 -0.107558,-0.21879 -0.03301,-0.0162 -0.08585,0.024 -0.111675,-0.002 -0.02583,-0.0261 0.02789,-0.0823 0.0021,-0.10833 -0.02583,-0.0261 -0.08585,0.024 -0.111675,-0.002 -0.02583,-0.0261 0.0014,-0.0723 0.0021,-0.10833 5e-4,-0.0263 0.0098,-0.32158 0.0062,-0.32512 -0.02583,-0.0261 -0.07445,-0.001 -0.111675,-0.002"
       id="path2735"
       inkscape:connector-curvature="0" />
    <path
       style="fill:none;stroke:#000000;stroke-width:0.59755063px;stroke-linecap:butt;stroke-linejoin:miter;stroke-opacity:1"
       d="m 87.165022,172.80921 c -0.109617,-0.11045 -0.236427,-0.20699 -0.32885,-0.33149 -0.01387,-0.0181 0.0073,-0.38414 0.0082,-0.4335 9.72e-4,-0.0512 0.015,-0.53688 0.0103,-0.54189 -0.02583,-0.0261 -0.08585,0.024 -0.111675,-0.002 -0.02583,-0.0261 0.01795,-0.0758 0.0021,-0.10833 -0.02267,-0.046 -0.08694,-0.0644 -0.109616,-0.11046 -0.01589,-0.0326 0.02789,-0.0823 0.0021,-0.10833 -0.02583,-0.0261 -0.07869,0.0141 -0.111674,-0.002 -0.04663,-0.0238 -0.06297,-0.0868 -0.109617,-0.11045 -0.03372,-0.0162 -0.284736,-0.005 -0.335032,-0.006 -0.05265,-0.001 -0.553251,-0.0145 -0.558386,-0.0106 -0.0268,0.0251 0.02474,0.0833 -0.0021,0.10833 -0.05362,0.0502 -0.156148,-0.0353 -0.22335,-0.004 -0.0475,0.022 -0.06623,0.0845 -0.113733,0.10621 -0.03427,0.0149 -0.284737,-0.005 -0.335031,-0.006 -0.22335,-0.004 -0.44671,-0.008 -0.670062,-0.0127 -0.781742,-0.0149 -1.563485,-0.0297 -2.345222,-0.0446 -0.297808,-0.006 -0.595618,-0.0113 -0.89342,-0.017 -0.03722,-7.1e-4 -0.08585,0.024 -0.111675,-0.002 -0.02583,-0.0261 0.02789,-0.0823 0.0021,-0.10834 -0.02999,-0.0302 -0.386688,0.0221 -0.44671,-0.008 -0.04663,-0.0238 -0.06297,-0.0868 -0.109616,-0.11046 -0.06597,-0.0336 -0.171671,0.0479 -0.22335,-0.004 -0.02583,-0.0261 0.02789,-0.0823 0.0021,-0.10833 -0.02227,-0.0226 -0.291177,0.0168 -0.335035,-0.006 -0.04663,-0.0238 -0.06298,-0.0866 -0.109616,-0.11044 -0.06597,-0.0336 -0.171694,0.048 -0.22335,-0.004 -0.02583,-0.0261 0.02789,-0.0823 0.0021,-0.10833 -0.02583,-0.0261 -0.07869,0.0141 -0.111675,-0.002 -0.04663,-0.0238 -0.06297,-0.0869 -0.109617,-0.11045 -0.06597,-0.0336 -0.157375,0.0293 -0.223349,-0.004 -0.0467,-0.0238 -0.06297,-0.0869 -0.109617,-0.11046 -0.06597,-0.0336 -0.171694,0.0479 -0.22335,-0.004 -0.02583,-0.0261 0.02789,-0.0823 0.0021,-0.10833 -0.05168,-0.0522 -0.171694,0.0479 -0.223349,-0.004 -0.02583,-0.0261 0.02789,-0.0823 0.0021,-0.10833 -0.02583,-0.0261 -0.07866,0.0141 -0.111675,-0.002 -0.04663,-0.0238 -0.06297,-0.0869 -0.109616,-0.11045 -0.03301,-0.0162 -0.08585,0.024 -0.111675,-0.002 -0.02583,-0.0261 0.02789,-0.0823 0.0021,-0.10833 -0.05168,-0.0522 -0.157377,0.0293 -0.22335,-0.004 -0.04663,-0.0238 -0.06298,-0.0866 -0.109616,-0.11045 -0.03301,-0.0162 -0.07866,0.0141 -0.111676,-0.002 -0.04663,-0.0238 -0.06298,-0.0866 -0.109617,-0.11045 -0.06597,-0.0336 -0.171671,0.0479 -0.223349,-0.004 -0.05168,-0.0522 0.0362,-0.15152 0.0041,-0.21666 -0.223818,-0.45544 0.0056,0.11605 -0.221291,-0.11257 -0.02583,-0.0261 0.02789,-0.0823 0.0021,-0.10833 -0.02583,-0.0261 -0.08582,0.024 -0.111675,-0.002 -0.02583,-0.0261 0.01795,-0.0758 0.0021,-0.10834 -0.02267,-0.046 -0.08694,-0.0644 -0.109617,-0.11045 -0.03208,-0.0651 0.0558,-0.16472 0.0041,-0.21666 -0.02583,-0.0261 -0.08585,0.024 -0.111675,-0.002 -0.02583,-0.0261 -0.03516,-0.10903 0.0021,-0.10832 0.03724,7.1e-4 0.03518,0.10903 -0.0021,0.10832 -0.05263,-0.001 -0.06297,-0.0866 -0.109617,-0.11044 -0.03301,-0.0162 -0.08006,0.0163 -0.111675,-0.002 -0.157753,-0.0956 -0.293613,-0.22165 -0.440424,-0.33256"
       id="path2739"
       inkscape:connector-curvature="0" />
    <path
       style="fill:none;stroke:#000000;stroke-width:0.59755063px;stroke-linecap:butt;stroke-linejoin:miter;stroke-opacity:1"
       d="m 76.077717,168.37139 c 0.525929,-0.24334 1.066604,-0.45872 1.577796,-0.72999 0.03266,-0.0172 0.0014,-0.0723 0.0021,-0.10833 0.0034,-0.18062 0.0069,-0.36127 0.0103,-0.54189 0.0034,-0.18063 0.0069,-0.36125 0.0103,-0.54187 6.89e-4,-0.0363 -0.02474,-0.0833 0.0021,-0.10834 0.0268,-0.0251 0.08488,0.0272 0.111675,0.002 0.0268,-0.0251 -0.02474,-0.0833 0.0021,-0.10833 0.0268,-0.0251 0.08488,0.0272 0.111674,0.002 0.0268,-0.0251 -0.01506,-0.0764 0.0021,-0.10833 0.0244,-0.0452 0.08933,-0.061 0.113733,-0.10621 0.01712,-0.032 -0.01529,-0.0764 0.0021,-0.10833 0.0244,-0.0452 0.08933,-0.061 0.113733,-0.10621 0.03453,-0.064 -0.03041,-0.15277 0.0041,-0.21665 0.0244,-0.0451 0.08932,-0.061 0.113733,-0.10621 0.01735,-0.032 -0.01506,-0.0764 0.0021,-0.10833 0.0244,-0.0451 0.08933,-0.061 0.113733,-0.10621 0.01712,-0.032 -0.02474,-0.0833 0.0021,-0.10833 0.0268,-0.0251 0.08488,0.0272 0.111674,0.002 0.07587,-0.0709 -0.07175,-0.14578 0.0041,-0.21666 0.0268,-0.0251 0.08488,0.0272 0.111676,0.002 0.0268,-0.0251 -0.01506,-0.0764 0.0021,-0.10833 0.06947,-0.12886 0.27173,-0.19 0.341204,-0.31876 0.01712,-0.032 -0.02474,-0.0833 0.0021,-0.10833 0.0268,-0.0251 0.08488,0.0272 0.111675,0.002 0.05362,-0.0502 -0.0495,-0.16672 0.0041,-0.21688 0.0268,-0.0251 0.08488,0.0272 0.111675,0.002 0.0268,-0.0251 -0.02474,-0.0833 0.0021,-0.10833 0.0268,-0.0251 0.07807,0.0171 0.111675,0.002 0.469061,-0.21668 -0.119509,0.005 0.115793,-0.21453 0.05362,-0.0502 0.169725,0.0544 0.223349,0.004 0.0536,-0.0502 -0.0495,-0.16672 0.0041,-0.21666 0.443884,-0.41469 0.05951,0.0262 0.337086,-0.10197 0.04757,-0.022 0.06623,-0.0845 0.113733,-0.1062 0.03358,-0.015 0.07807,0.0171 0.111676,0.002 0.09503,-0.0438 0.132437,-0.16861 0.227466,-0.21242 0.0336,-0.015 0.08488,0.0272 0.111675,0.002 0.23532,-0.21985 -0.353272,0.002 0.115792,-0.21454 0.09018,-0.0417 0.244865,0.0481 0.335035,0.006 0.09505,-0.0438 0.132437,-0.1686 0.227466,-0.21242 0.0672,-0.031 0.156148,0.0353 0.22335,0.004 0.0475,-0.022 0.06623,-0.0844 0.113733,-0.10621 0.0336,-0.015 0.08488,0.0272 0.111675,0.002 0.0268,-0.0251 0.0014,-0.0723 0.0021,-0.10832 0.07513,-0.0346 0.145958,-0.08 0.225409,-0.10408 0.04373,-0.0125 0.317362,0.0238 0.335027,0.006 0.0268,-0.0251 -0.02474,-0.0833 0.0021,-0.10833 0.05689,-0.0532 0.278165,0.0596 0.335033,0.006 0.0268,-0.0251 -0.02474,-0.0833 0.0021,-0.10833 0.03112,-0.029 0.385563,0.0367 0.446709,0.008 0.0475,-0.022 0.06622,-0.0842 0.113733,-0.10621 0.07379,-0.0342 0.458674,0.0407 0.558385,0.0106 0.07945,-0.0241 0.145957,-0.08 0.225408,-0.10409 0.06632,-0.021 0.49599,0.009 0.558384,0.0106 0.297809,0.006 0.59561,0.0113 0.893418,0.017 0.186124,0.004 0.372258,0.007 0.558386,0.0106 0.03722,7.1e-4 0.07445,0.001 0.111675,0.002 0.03725,7.1e-4 0.07869,-0.0141 0.111675,0.002 0.04663,0.0238 0.06298,0.0866 0.109616,0.11046 0.03301,0.0162 0.07445,0.001 0.111675,0.002 0.07445,0.001 0.157376,-0.0293 0.22335,0.004 0.03301,0.0162 -0.02789,0.0823 -0.0021,0.10833 0.02227,0.0226 0.291172,-0.0168 0.335029,0.006 0.04663,0.0238 0.06297,0.0868 0.109617,0.11045 0.04384,0.023 0.31262,-0.0163 0.335026,0.006 0.02583,0.0261 -0.02789,0.0823 -0.0021,0.10833 0.02583,0.0261 0.07866,-0.0141 0.111675,0.002 0.0467,0.0238 0.06297,0.0869 0.109616,0.11045 0.03301,0.0162 0.07657,-0.01 0.111676,0.002 0.07848,0.0271 0.142811,0.0855 0.221291,0.11257 0.03509,0.0118 0.08585,-0.024 0.111675,0.002 0.02583,0.0261 -0.02789,0.0823 -0.0021,0.10833 0.02583,0.0261 0.08585,-0.024 0.111675,0.002 0.02583,0.0261 -0.03506,0.0917 -0.0021,0.10833 0.06597,0.0336 0.157375,-0.0293 0.223349,0.004 0.03301,0.0162 -0.02789,0.0823 -0.0021,0.10833 0.02583,0.0261 0.08585,-0.024 0.111675,0.002 0.02583,0.0261 -0.02789,0.0823 -0.0021,0.10833 0.02583,0.0261 0.08585,-0.024 0.111675,0.002 0.05168,0.0522 -0.0558,0.16472 -0.0041,0.21666 0.02583,0.0261 0.08585,-0.024 0.111676,0.002 0.02583,0.0261 -0.02789,0.0823 -0.0021,0.10833 0.02583,0.0261 0.08585,-0.024 0.111674,0.002 0.05166,0.0522 -0.0558,0.16472 -0.0041,0.21666 0.02583,0.0261 0.08585,-0.024 0.111675,0.002 0.02583,0.0261 -0.01795,0.0758 -0.0021,0.10833 0.02267,0.046 0.08694,0.0644 0.109616,0.11045 0.01589,0.0326 -0.02789,0.0823 -0.0021,0.10833 0.02583,0.0261 0.08585,-0.024 0.111674,0.002 0.05168,0.0522 -0.0362,0.15152 -0.0041,0.21666 0.02268,0.046 0.08694,0.0644 0.109617,0.11045 0.01612,0.0326 -0.02789,0.0823 -0.0021,0.10833 0.02583,0.0261 0.08585,-0.024 0.111675,0.002 0.02583,0.0261 -0.0014,0.0723 -0.0021,0.10832 0.03722,7.1e-4 0.08585,-0.024 0.111675,0.002 0.05168,0.0522 -0.0558,0.16473 -0.0041,0.21667 0.02583,0.0261 0.08585,-0.024 0.111674,0.002 0.02583,0.0261 -0.02789,0.0823 -0.0021,0.10833 0.02583,0.0261 0.08585,-0.024 0.111675,0.002 0.02637,0.0265 -0.03461,0.40692 -0.0082,0.43352 0.05168,0.0522 0.171672,-0.0479 0.223351,0.004 0.0043,0.004 -0.0075,0.39369 -0.0082,0.4335 -7.56e-4,0.0398 -0.0038,0.42921 -0.0082,0.43349 -0.0268,0.0251 -0.08488,-0.0272 -0.111675,-0.002 -0.0268,0.0251 0.02474,0.0833 -0.0021,0.10833 -0.0268,0.0251 -0.0781,-0.0171 -0.111676,-0.002 -0.0475,0.022 -0.06623,0.0845 -0.113733,0.1062 -0.0336,0.015 -0.07807,-0.0171 -0.111675,-0.002 -0.0475,0.022 -0.06623,0.0845 -0.113734,0.10621 -0.0336,0.015 -0.08488,-0.0272 -0.111675,-0.002 -0.0268,0.0251 0.02474,0.0833 -0.0021,0.10833 -0.0268,0.0251 -0.08488,-0.0272 -0.111675,-0.002 -0.0268,0.0251 0.02474,0.0833 -0.0021,0.10833 -0.0268,0.0251 -0.07445,-0.001 -0.111675,-0.002 -0.03722,-7.1e-4 -0.07445,-0.001 -0.111675,-0.002 -0.07445,-0.001 -0.1489,-0.003 -0.22335,-0.004 -0.03722,-7.1e-4 -0.11236,0.0339 -0.111676,-0.002 6.9e-4,-0.0363 0.148901,0.003 0.111676,0.002 -0.07445,-0.001 -0.1489,-0.003 -0.22335,-0.004 -0.03722,-7e-4 0.08488,0.0272 0.111674,0.002 0.0268,-0.0251 -0.02474,-0.0833 0.0021,-0.10833 0.112195,-0.1049 0.219132,0.22624 0.225409,-0.10409"
       id="path2745"
       inkscape:connector-curvature="0" />
    <path
       style="fill:none;stroke:#000000;stroke-width:0.59755063px;stroke-linecap:butt;stroke-linejoin:miter;stroke-opacity:1"
       d="m 80.14424,177.77135 c 0.356697,-1.57846 0.0035,-0.21511 1.515648,-3.33209 0.0086,-0.0176 2.387699,-5.01611 2.677721,-5.69514 0.103744,-0.24291 0.153291,-0.50455 0.237767,-0.7544 0.07338,-0.21712 0.163905,-0.42847 0.235706,-0.64603 0.04681,-0.14174 0.05689,-0.2956 0.119912,-0.43137 0.05515,-0.11867 0.16079,-0.20901 0.229528,-0.32087 0.08525,-0.1388 0.161186,-0.28293 0.231587,-0.42928 0.08479,-0.17619 0.153126,-0.35952 0.233647,-0.53763 0.113865,-0.25189 0.242793,-0.49743 0.349443,-0.75228 0.08857,-0.21171 0.144252,-0.43554 0.235706,-0.64603 0.06467,-0.14874 0.166917,-0.28043 0.231588,-0.42924 0.137205,-0.31572 0.216354,-0.65332 0.353568,-0.96903 0.03235,-0.0744 0.08803,-0.13851 0.115792,-0.21454 0.05121,-0.14033 0.07503,-0.28897 0.119912,-0.43137 0.06886,-0.21855 0.174396,-0.42545 0.235706,-0.64603 0.0096,-0.0349 -0.0075,-0.0736 0.0021,-0.10833 0.06133,-0.22046 0.157137,-0.43069 0.235707,-0.64603 0.0393,-0.10762 0.09264,-0.21141 0.117853,-0.323 0.01601,-0.0705 -0.0119,-0.1462 0.0041,-0.21666 0.02524,-0.11167 0.09264,-0.21142 0.117853,-0.32302 0.02403,-0.10591 0.0041,-0.21666 0.0062,-0.32512 0.0021,-0.10833 0.0041,-0.21666 0.0062,-0.32512 6.89e-4,-0.0363 -0.0352,-0.10904 0.0021,-0.10833 0.03722,7.1e-4 -0.0014,0.0723 -0.0021,0.10833"
       id="path2753"
       inkscape:connector-curvature="0" />
    <rect
       id="rect2757"
       width="6.264503"
       height="11.445338"
       x="121.00722"
       y="162.48038"
       style="stroke-width:0.3748062" />
    <rect
       id="rect2757-5"
       width="6.264504"
       height="11.445338"
       x="128.80832"
       y="162.39975"
       style="stroke-width:0.3748062" />
    <rect
       id="rect2757-2"
       width="6.264504"
       height="11.445338"
       x="136.7867"
       y="162.39977"
       style="stroke-width:0.3748062" />
    <rect
       id="rect2757-6"
       width="6.264504"
       height="11.445338"
       x="144.88329"
       y="162.39975"
       style="stroke-width:0.3748062" />
    <rect
       id="rect2757-9"
       width="6.264504"
       height="11.445338"
       x="152.80255"
       y="162.48038"
       style="stroke-width:0.3748062" />
    <rect
       id="rect2798"
       width="38.059814"
       height="4.7554579"
       x="121.00722"
       y="157.7249"
       style="stroke-width:0.3748062" />
    <text
       xml:space="preserve"
       style="font-style:normal;font-weight:normal;font-size:68.54800415px;line-height:1.25;font-family:sans-serif;letter-spacing:0px;word-spacing:0px;fill:#000000;fill-opacity:1;stroke:none;stroke-width:1.71370006"
       x="296.37573"
       y="1.4594163"
       id="text2886"
       transform="scale(0.18454208,-5.4188183)"><tspan
         sodipodi:role="line"
         id="tspan2884"
         x="296.37573"
         y="1.4594163"
         style="stroke-width:1.71370006">-------------------------</tspan></text>
    <path
       style="fill:none;stroke:#000000;stroke-width:0.26458332px;stroke-linecap:butt;stroke-linejoin:miter;stroke-opacity:1"
       d="m 77.39453,18.88121 c 0,0.826822 0,1.653645 0,2.480468 0,0.183739 0,0.367477 0,0.551215 0,0.09187 -0.02905,0.188453 0,0.275608 0.316693,0.950078 0.275609,0.20416 0.275609,0.826823 0,0.949018 0.899954,1.394957 1.102429,2.204861 0.04456,0.178253 -0.08217,0.386875 0,0.551216 0.116207,0.232412 0.388892,0.348309 0.551217,0.551215 0.206922,0.258654 0.35247,0.561831 0.551214,0.826823 0.07795,0.103939 0.234521,0.152352 0.275609,0.275608 0.0581,0.174308 -0.05811,0.376905 0,0.551215 0.04108,0.123256 0.183737,0.183737 0.275605,0.275608 0.315339,0.315336 0.384361,0.326255 0.551217,0.826823 0.0581,0.174308 -0.129923,0.421291 0,0.551215 0.129921,0.129923 0.421291,-0.129924 0.551215,0 0.06496,0.06496 -0.04108,0.193436 0,0.275608 0.0581,0.116205 0.217503,0.159401 0.275608,0.275606 0.04108,0.08217 -0.06496,0.210648 0,0.275609 0.202764,0.202766 0.497398,-0.221793 0.551215,-0.275609 0.367477,-0.367477 0.769733,-0.703194 1.102431,-1.102429 0.212053,-0.254465 0.367477,-0.551217 0.551215,-0.826823 0.781441,-1.172162 0.702611,-1.117534 1.929254,-2.480469 0.347654,-0.386284 0.734951,-0.734954 1.102429,-1.102431 0.367477,-0.367477 0.734954,-0.734954 1.102431,-1.102431 0.275609,-0.275607 0.515009,-0.592962 0.826823,-0.826823 0.705353,-0.529014 1.516258,-0.827155 2.20486,-1.378038 1.072375,-0.857899 0.03489,-0.566168 1.929255,-1.378038 0.168883,-0.07238 0.376906,0.0581 0.551214,0 0.123256,-0.04109 0.18374,-0.183738 0.275608,-0.275608 0.345091,-0.34509 0.587984,-0.551215 1.102432,-0.551215"
       id="path2921"
       inkscape:connector-curvature="0" />
    <path
       style="fill:none;stroke:#000000;stroke-width:0.26458332px;stroke-linecap:butt;stroke-linejoin:miter;stroke-opacity:1"
       d="m 68.299478,19.432425 c 2.204861,0 4.409723,0 6.614584,0 4.869068,0 9.738137,0 14.607203,0 1.1943,0 2.3886,0 3.582901,0 0.09187,0 0.183737,0 0.275608,0 0.09187,0 0.210645,-0.06496 0.275606,0 0.06496,0.06496 -0.06496,0.210646 0,0.275607 0.06496,0.06496 0.18374,0 0.275608,0 0.551215,0 1.102432,0 1.653646,0 0.643086,0 1.286169,0 1.929255,0 0.09187,0 0.183737,0 0.275605,0 0.09187,0 0.275609,-0.09187 0.275609,0 0,0.09187 -0.367477,0 -0.275609,0 0.275609,0 0.551217,0 0.826823,0 0.09187,0 0.275609,-0.09187 0.275609,0 0,0.09187 -0.367477,0 -0.275609,0 0.18374,0 0.732819,0.02794 0.551217,0 -1.374068,-0.211395 -2.756077,-0.367477 -4.134114,-0.551215"
       id="path2923"
       inkscape:connector-curvature="0" />
    <path
       style="fill:none;stroke:#000000;stroke-width:0.26458332px;stroke-linecap:butt;stroke-linejoin:miter;stroke-opacity:1"
       d="m 77.39453,18.88121 c -0.367477,-0.09187 -0.731001,-0.201322 -1.102431,-0.275608 -0.294677,-0.05894 -1.038286,0 -1.378037,0 -1.010561,0 -2.021123,0 -3.031684,0 -0.12995,0 -1.365549,-0.01249 -1.378039,0 -0.06496,0.06496 0.06496,0.210646 0,0.275608 -0.06632,0.06632 -1.036111,-0.06632 -1.102429,0 -0.06496,0.06496 0.06496,0.210646 0,0.275607 -0.0089,0.0089 -0.759981,0 -0.826823,0 -0.09187,0 -0.275609,0.09187 -0.275609,0 0,-0.09187 0.367477,0 0.275609,0 -0.18374,0 -0.386877,-0.08217 -0.551217,0 -0.08217,0.04108 -0.06496,0.210646 0,0.275608 0.06632,0.06632 1.036111,-0.06632 1.102431,0 0.06496,0.06496 -0.06496,0.210646 0,0.275607 0.06496,0.06496 0.183737,0 0.275609,0 0.459346,0 0.918691,0 1.378037,0 1.561777,0 -1.837383,0 -0.275608,0 1.010562,0 2.021122,0 3.031685,0 0.06684,0 0.81796,0.0089 0.826823,0 0.06496,-0.06496 -0.06496,-0.210646 0,-0.275607 0.0089,-0.0089 0.759979,0 0.826823,0 0.09187,0 0.183737,0 0.275606,0 0.09187,0 0.275608,-0.09187 0.275608,0 0,0.09187 -0.275608,0.09187 -0.275608,0 0,-0.129923 0.217506,-0.159401 0.275608,-0.275608 0.04194,-0.08388 0,-0.702701 0,-0.826823 0,-0.09187 0.06496,-0.210646 0,-0.275607 -0.06496,-0.06496 -0.183737,0 -0.275608,0 -0.191696,0 -1.278369,0.04983 -1.378037,0 -0.116205,-0.0581 -0.159401,-0.217505 -0.275609,-0.275608 -0.164341,-0.08217 -0.421291,0.129923 -0.551214,0 -0.06496,-0.06496 0.06496,-0.210646 0,-0.275608 -0.06496,-0.06496 -0.183737,0 -0.275609,0 -0.734951,0 -1.469906,0 -2.20486,0 -0.09187,0 -0.183737,0 -0.275608,0 -0.09187,0 -0.210646,-0.06496 -0.275606,0 -0.06496,0.06496 0.06496,0.210647 0,0.275608 -0.137806,0.137804 -0.68902,-0.137804 -0.826823,0 -0.06496,0.06496 0.09187,0.275608 0,0.275608 -0.09187,0 0.05739,-0.347346 0,-0.275608 -0.413848,0.517309 -0.734955,1.102431 -1.102432,1.653646"
       id="path2925"
       inkscape:connector-curvature="0" />
    <path
       style="fill:none;stroke:#000000;stroke-width:0.26458332px;stroke-linecap:butt;stroke-linejoin:miter;stroke-opacity:1"
       d="M 95.03342,19.156817 68.299478,19.432425"
       id="path2927"
       inkscape:connector-curvature="0" />
    <path
       style="fill:none;stroke:#000000;stroke-width:0.26458332px;stroke-linecap:butt;stroke-linejoin:miter;stroke-opacity:1"
       d="m 68.299478,19.432425 c 2.017588,-0.576454 1.929255,0.117603 1.929255,-0.826823 0,-0.09187 -0.06496,-0.210646 0,-0.275608 0.06496,-0.06496 0.183737,0 0.275606,0 0.551217,0 1.102431,0 1.653645,0 0.09187,0 0.19344,-0.04108 0.275609,0 0.116207,0.0581 0.152352,0.234523 0.275608,0.275608 0.182362,0.06079 1.555769,0 1.929252,0 0.09187,0 0.188455,-0.02905 0.275609,0 0.194884,0.06496 0.35633,0.210646 0.551214,0.275608 0.17988,0.05996 1.324126,0 1.653646,0 0.09187,0 0.18374,0 0.275608,0 0.09187,0 0.193437,-0.04109 0.275609,0 0.116205,0.0581 0.159401,0.217504 0.275606,0.275607 0.08217,0.04108 0.210648,-0.06496 0.275608,0 0.06496,0.06496 0.06496,0.210646 0,0.275608 -0.06496,0.06496 -0.183737,0 -0.275608,0 -0.734952,0 -1.469906,0 -2.204861,0 -1.286168,0 -2.572337,0 -3.858506,0 -0.459345,0 -0.918694,0 -1.378039,0 -0.09187,0 -0.183738,0 -0.275606,0 -0.09187,0 -0.193437,0.04109 -0.275609,0 -0.116205,-0.0581 -0.159401,-0.217505 -0.275608,-0.275608 -0.08217,-0.04108 -0.183738,0 -0.275606,0 -0.09187,0 -0.186481,-0.02228 -0.275609,0 -0.281842,0.07046 -1.08667,0.405531 -0.826823,0.275608 0.4425,-0.221251 0.908696,-0.394768 1.378038,-0.551215 0.155498,-0.05183 0.645721,0 0.826823,0 0.734954,0 1.469908,0 2.204862,0 0.528466,0 0.426697,-0.124519 0.826823,0.275607 0.207005,0.207006 0.551215,0.609734 0.551215,0.275608 0,-0.129923 -0.183738,-0.183739 -0.275609,-0.275608 -0.09187,-0.09187 -0.159401,-0.217504 -0.275606,-0.275607 -0.08217,-0.04109 -0.193437,0.04108 -0.275608,0 -0.232413,-0.116207 -0.318802,-0.435009 -0.551215,-0.551216 -0.08217,-0.04108 -0.210648,0.06496 -0.275608,0 -0.129924,-0.129922 0.129923,-0.421292 0,-0.551215 -0.06496,-0.06496 -0.193437,0.04108 -0.275609,0 -0.116205,-0.0581 -0.159401,-0.217504 -0.275606,-0.275608 -0.08217,-0.04108 -0.275608,0.09187 -0.275608,0 0,-0.09187 0.183737,0 0.275608,0 0.702292,0 0.367345,0.321477 0.826823,0.551216 0.08217,0.04109 0.193437,-0.04109 0.275606,0 0.116208,0.0581 0.159404,0.217504 0.275609,0.275607 0.08217,0.04109 0.210645,-0.06496 0.275608,0 0.06496,0.06496 -0.06496,0.210647 0,0.275608 0.129921,0.129923 0.421291,-0.129923 0.551215,0 0.06496,0.06496 -0.06496,0.210646 0,0.275608 0.06496,0.06496 0.275608,-0.09187 0.275608,0 0,0.09187 -0.18374,0 -0.275608,0 -0.09187,0 -0.183738,0 -0.275609,0 -0.367477,0 -0.734951,0 -1.102429,0 -0.459345,0 -0.918694,0 -1.37804,0 -0.09187,0 -0.210645,0.06496 -0.275605,0 -0.06496,-0.06496 0.06496,-0.210647 0,-0.275608 -0.06496,-0.06496 -0.193437,0.04108 -0.275609,0 -0.116205,-0.0581 -0.159401,-0.217505 -0.275608,-0.275608 -0.08217,-0.04108 -0.183738,0 -0.275606,0 -0.09187,0 -0.18374,0 -0.275609,0 -0.09187,0 -0.367477,0 -0.275608,0 1.010562,0 2.021123,0 3.031685,0 0.09187,0 0.183738,0 0.275606,0 0.09187,0 0.210648,-0.06496 0.275609,0 0.06496,0.06496 -0.06496,0.210647 0,0.275608 0.06496,0.06496 0.210645,-0.06496 0.275608,0 0.06496,0.06496 0.06496,0.210646 0,0.275608 -0.06496,0.06496 -0.18374,0 -0.275608,0 -0.09187,0 -0.183737,0 -0.275609,0 -0.643083,0 -1.286168,0 -1.929251,0 -0.124124,0 -0.742948,0.04194 -0.826823,0 -0.116208,-0.0581 -0.159401,-0.217505 -0.275609,-0.275608 -0.367477,-0.183738 -0.275608,0.275608 -0.275608,-0.275608 0,-0.09187 -0.04108,-0.193437 0,-0.275607 0.0581,-0.116207 0.367477,-0.367477 0.275608,-0.275608 -0.551214,0.551215 -1.102431,1.102431 -1.653646,1.653646"
       id="path2929"
       inkscape:connector-curvature="0" />
    <path
       style="fill:none;stroke:#000000;stroke-width:0.26458332px;stroke-linecap:butt;stroke-linejoin:miter;stroke-opacity:1"
       d="m 77.39453,18.88121 c -0.18374,0.367476 -0.398629,0.720964 -0.551214,1.10243 -0.05036,0.125886 0,0.916828 0,1.102431 0,0.195351 -0.03563,1.582387 0,1.653645 0.0581,0.116207 0.217503,0.159402 0.275606,0.275608 0.04109,0.08217 -0.02905,0.188453 0,0.275608 0.06496,0.194884 0.210648,0.356331 0.275608,0.551215 0.02905,0.08715 -0.04108,0.193437 0,0.275608 0.0581,0.116206 0.183738,0.183738 0.275609,0.275607 0.262572,0.262573 0.467786,0.409685 0.551214,0.826823 0.05405,0.270256 -0.08715,0.565359 0,0.826823 0.0581,0.17431 0.421294,-0.129923 0.551215,0 0.129923,0.129923 -0.129921,0.421293 0,0.551215 0.06496,0.06496 0.210648,-0.06496 0.275608,0 0.06496,0.06496 0.09187,0.275608 0,0.275608 -0.115358,0 0.07188,-0.335572 0,-0.551215 -0.06496,-0.194884 -0.183737,-0.367477 -0.275608,-0.551215 0,-0.275608 0.06684,-0.559445 0,-0.826823 -0.03151,-0.126044 -0.183738,-0.183739 -0.275606,-0.275608 -0.09187,-0.183738 -0.235321,-0.349779 -0.275609,-0.551215 -0.05405,-0.270256 0.05405,-0.556568 0,-0.826823 -0.04029,-0.201437 -0.210645,-0.356331 -0.275608,-0.551216 -0.02905,-0.08715 0.02905,-0.188452 0,-0.275607 -0.129921,-0.389768 -0.421291,-0.712663 -0.551215,-1.102431 -0.02905,-0.08716 0.04108,-0.193437 0,-0.275607 -0.630674,-1.261348 0.114231,1.169518 -0.551214,-0.826823 -0.148609,-0.445822 0.623506,-1.2696 0.551214,-1.378038 -0.322299,-0.483448 -1.133956,-0.29137 -1.653646,-0.551216 -0.08217,-0.04108 0.06496,-0.210646 0,-0.275607 -0.06496,-0.06496 -0.210645,0.06496 -0.275608,0 -0.02756,-0.02756 0.128617,-0.95544 -0.275606,-0.551216 -0.21545,0.21545 0.239728,0.479461 0.275606,0.551216 0.221252,0.4425 0.415303,0.902342 0.551217,1.378038 0.05048,0.176669 0,0.367477 0,0.551215 0,0.09187 -0.04109,0.193437 0,0.275608 0.116205,0.232413 0.435009,0.318802 0.551214,0.551215 0.04108,0.08217 0,0.183738 0,0.275608 0,0.183738 -0.0581,0.376905 0,0.551215 0.04108,0.123255 0.234522,0.152352 0.275609,0.275607 0.0581,0.17431 0,0.367477 0,0.551216 0,0.09187 -0.04109,0.193437 0,0.275607 0.573505,1.147013 -0.01902,-0.294634 0.551214,0.275608 0.06496,0.06496 0,0.183738 0,0.275608 0,0.09187 0,0.183738 0,0.275607 0,0.09187 0,0.367477 0,0.275608 0,-1.653646 0,-3.307292 0,-4.960937"
       id="path2931"
       inkscape:connector-curvature="0" />
    <path
       style="fill:none;stroke:#000000;stroke-width:0.26458332px;stroke-linecap:butt;stroke-linejoin:miter;stroke-opacity:1"
       d="m 77.39453,18.88121 1.102432,5.78776"
       id="path2933"
       inkscape:connector-curvature="0" />
    <path
       style="fill:none;stroke:#000000;stroke-width:0.26458332px;stroke-linecap:butt;stroke-linejoin:miter;stroke-opacity:1"
       d="m 87.592014,21.361678 -0.826823,0.551215"
       id="path2935"
       inkscape:connector-curvature="0" />
    <path
       style="fill:none;stroke:#000000;stroke-width:0.26458332px;stroke-linecap:butt;stroke-linejoin:miter;stroke-opacity:1"
       d="M 86.765191,21.912893 77.39453,18.88121"
       id="path2937"
       inkscape:connector-curvature="0" />
    <path
       style="fill:none;stroke:#000000;stroke-width:0.26458332px;stroke-linecap:butt;stroke-linejoin:miter;stroke-opacity:1"
       d="m 78.496962,24.66897 8.268229,-2.756077"
       id="path2939"
       inkscape:connector-curvature="0" />
    <path
       style="fill:none;stroke:#000000;stroke-width:0.26458332px;stroke-linecap:butt;stroke-linejoin:miter;stroke-opacity:1"
       d="m 95.03342,19.156817 -7.441406,2.204861 c -0.09187,0.734954 -0.183738,1.469908 -0.275608,2.204862 0,0.09187 0.02905,0.362762 0,0.275607 -0.211498,-0.634496 -0.367477,-1.286169 -0.551215,-1.929254"
       id="path2941"
       inkscape:connector-curvature="0" />
    <path
       style="fill:none;stroke:#000000;stroke-width:0.26458332px;stroke-linecap:butt;stroke-linejoin:miter;stroke-opacity:1"
       d="m 87.316405,23.56654 -8.543837,2.204861"
       id="path2943"
       inkscape:connector-curvature="0" />
    <path
       style="fill:none;stroke:#000000;stroke-width:0.26458332px;stroke-linecap:butt;stroke-linejoin:miter;stroke-opacity:1"
       d="M 95.03342,19.156817 77.39453,18.88121"
       id="path2945"
       inkscape:connector-curvature="0" />
  </g>
  <g
     id="g2601"
     inkscape:groupmode="layer"
     inkscape:label="newlayer"
     transform="translate(-0.5,-0.5)" />
</svg>
